<svg width="210" height="121" viewBox="0 0 210 121" fill="none" xmlns="http://www.w3.org/2000/svg">
<g clip-path="url(#clip0_589_1329)" filter="url(#filter0_d_589_1329)">
<path d="M111.67 0.0240247C112.194 0.191212 112.744 0.262983 113.294 0.235921C116.903 0.319357 120.513 0.349908 124.109 0.691149C127.119 0.97607 130.136 1.17175 133.147 1.50295C135.393 1.75465 137.639 2.02948 139.882 2.28779C142.284 2.56596 144.666 2.98295 147.051 3.3702C149.175 3.71441 151.295 4.08177 153.413 4.47226C155.067 4.77671 156.721 5.11421 158.345 5.46492C159.969 5.81564 161.564 6.21593 163.165 6.61621C165.375 7.16868 167.591 7.68479 169.781 8.31658C172.871 9.20967 175.964 10.1193 179.007 11.1578C182.596 12.3816 186.143 13.7375 189.623 15.2587C194.425 17.3369 199.073 19.7535 203.532 22.4903C204.061 22.825 204.572 23.187 205.064 23.5747C202.95 22.5364 200.846 21.4717 198.716 20.4631C195.209 18.8097 191.61 17.3976 187.972 16.0615C184.664 14.8444 181.296 13.7463 177.915 12.754C175.004 11.8874 172.07 11.1001 169.099 10.4384C166.453 9.84615 163.806 9.16137 161.133 8.63194C158.07 8.0264 155.007 7.41426 151.91 6.96075C149.495 6.60986 147.09 6.18625 144.672 5.84858C142.512 5.54732 140.341 5.30556 138.171 5.0704C135.452 4.77453 132.731 4.49849 130.01 4.24228C128.465 4.0932 126.917 3.89123 125.378 3.86445C122.427 3.81751 119.486 3.57227 116.542 3.42949C110.564 3.14391 104.586 3.12605 98.6079 3.23048C92.8713 3.33166 87.138 3.63116 81.4046 4.06617C77.3927 4.37155 73.3863 4.74966 69.3854 5.20048C66.4608 5.53035 63.5428 5.91311 60.6348 6.37188C57.8359 6.81195 55.0414 7.28948 52.2513 7.80448C49.4126 8.32937 46.5872 8.90716 43.7684 9.51138C41.4128 10.0133 39.0936 10.6705 36.7512 11.2351C33.9225 11.9187 31.1268 12.7378 28.3576 13.5965C25.9589 14.3396 23.5867 15.1588 21.2211 16.011C17.2538 17.4169 13.3601 19.0222 9.55501 20.8208C7.70217 21.7095 5.87248 22.6445 4.01965 23.5365C6.4781 21.7588 9.14489 20.3316 11.815 18.9109C15.2245 17.1214 18.7217 15.5038 22.2934 14.0645C25.602 12.7134 28.98 11.4714 32.4076 10.431C35.0544 9.6119 37.7012 8.74983 40.3679 8.01997C43.0908 7.28021 45.8269 6.57019 48.5927 5.99901C50.8259 5.53677 53.0426 4.9853 55.2791 4.54951C57.3137 4.15003 59.3682 3.85633 61.4128 3.49982C63.5335 3.13011 65.6575 2.77692 67.798 2.50968C69.8327 2.26224 71.8541 1.89912 73.8921 1.69134C77.5313 1.31867 81.1704 1.01209 84.8096 0.702213C88.5646 0.372529 92.3327 0.330402 96.0976 0.245307C97.4904 0.212566 98.8832 0.107108 100.276 0.0380089L111.67 0.0240247Z" fill="#E3B13C"/>
<path d="M114.918 44.7709C116.465 45.2678 117.984 45.8452 119.47 46.5005C123.39 48.3821 125.189 52.2331 124.877 56.5959C124.502 61.8313 120.726 65.5521 115.373 66.7738C113.757 67.1409 112.104 67.3246 110.447 67.3214C104.567 67.3201 98.6894 67.3188 92.8139 67.3175C92.4566 67.3174 92.0265 67.4859 92.0167 66.7984C92.0069 66.1109 92.384 66.2134 92.7711 66.1937C93.7438 66.1377 94.723 66.1412 95.5734 65.5564C96.566 64.8758 96.8441 63.8545 96.8973 62.7473C96.9505 61.802 96.9705 60.8534 96.9707 59.9081C96.9728 50.5477 96.9749 41.1829 96.977 31.8137C97.0059 30.7622 96.952 29.7101 96.8156 28.6671C96.5876 27.2656 95.7806 26.3863 94.3879 26.1248C93.7916 26.0146 93.1877 25.9504 92.5816 25.9327C92.1945 25.9161 92.0292 25.8368 92.0293 25.4038C92.0293 24.9708 92.1948 24.8287 92.6315 24.8321C96.2938 24.8329 99.9593 24.8338 103.622 24.8346C106.705 24.8551 109.788 24.7269 112.885 24.9622C116.461 25.2341 119.551 26.3651 121.591 29.565C123.959 33.2707 123.905 37.9509 121.337 41.0638C119.858 42.8616 117.793 43.7304 115.679 44.5033C115.461 44.5925 115.272 44.652 114.918 44.7709ZM105.203 54.4563C105.202 56.5551 105.202 58.6573 105.202 60.7561C105.195 61.36 105.224 61.9637 105.29 62.564C105.499 64.1241 106.431 64.9639 108.006 64.9378C110.861 64.8889 113.045 63.6168 114.273 61.0456C116.014 57.4103 115.816 53.7051 114.12 50.0987C113.22 48.1914 111.599 47.1235 109.535 46.7297C108.32 46.5202 107.09 46.4094 105.856 46.3983C105.327 46.3982 105.195 46.5502 105.195 47.0592C105.227 49.5183 105.204 51.9873 105.203 54.4563ZM105.207 35.5141C105.207 38.0889 105.206 40.6636 105.205 43.2384C105.205 43.7738 105.328 44.0085 105.907 43.9393C106.661 43.8469 107.428 43.8537 108.183 43.7415C110.925 43.3322 112.914 41.9147 113.867 39.2641C114.702 36.9185 114.743 34.364 113.985 31.9927C113.264 29.6458 111.67 28.0953 109.195 27.5626C108.109 27.3657 107.01 27.2396 105.907 27.1851C105.348 27.142 105.199 27.3271 105.206 27.879C105.238 30.4174 105.208 32.9658 105.207 35.5141Z" fill="#383637"/>
<path d="M152.024 60.2574C152.024 57.8909 152.025 55.5243 152.025 53.1578C152.025 52.8471 151.731 52.3248 152.439 52.2721C153.074 52.226 152.998 52.6887 153.071 53.049C153.676 56.004 154.565 58.8533 156.377 61.3127C157.753 63.1904 159.42 64.7475 161.646 65.5677C164.491 66.6194 168.001 66.2533 169.918 63.2857C171.499 60.8402 171.226 57.525 169.132 55.1051C167.535 53.2571 165.427 52.0965 163.38 50.8665C161.26 49.5902 159.139 48.3139 157.224 46.7369C152.378 42.7464 150.759 36.8198 152.927 31.0494C155.347 24.694 162.41 22.0514 168.424 25.2389C169.287 25.7434 170.179 26.1951 171.097 26.5914C172.232 27.0213 172.913 26.7273 173.307 25.5805C173.455 25.1862 173.566 24.779 173.638 24.3642C173.691 24.0139 173.817 23.8685 174.191 23.8785C174.634 23.8786 174.522 24.2091 174.521 24.4338C174.609 28.7967 174.693 33.1608 174.773 37.5259C174.773 37.8266 174.81 38.1076 174.35 38.0777C173.992 38.0578 173.711 38.0776 173.632 37.5917C173.356 35.529 172.67 33.5422 171.615 31.7476C169.962 29.0634 167.841 26.9443 164.586 26.3453C162.065 25.8787 159.753 26.8962 158.518 28.9386C157.254 31.0305 157.442 33.5425 158.997 35.5723C160.482 37.5028 162.565 38.6568 164.587 39.8703C167.398 41.5764 170.269 43.1768 172.704 45.4414C178.906 51.1807 178.381 61.2317 171.548 66.1682C168.239 68.5604 164.53 68.7744 160.7 67.6333C159.602 67.2647 158.538 66.8046 157.517 66.2576C155.533 65.2656 154.123 65.7379 153.19 67.7275C152.991 68.1538 152.77 68.3719 152.31 68.2759C151.85 68.18 152.032 67.7669 152.032 67.4992C152.013 65.0962 152.023 62.6768 152.024 60.2574Z" fill="#383637"/>
<path d="M6.5135 99.425C6.95035 98.688 7.72787 98.3841 8.40946 97.9909C12.7516 95.4769 17.2557 93.253 21.8922 91.3339C25.1302 90.0126 28.4156 88.8014 31.7484 87.7004C34.5805 86.769 37.4258 85.8772 40.2909 85.0581C42.9609 84.2853 45.6804 83.6844 48.3834 83.0371C50.524 82.5253 52.6679 82.0201 54.8217 81.581C56.7769 81.1815 58.7454 80.858 60.7139 80.5312C63.1489 80.1285 65.5872 79.7391 68.0288 79.3826C69.9543 79.1021 71.8864 78.8613 73.8185 78.6469C76.5379 78.3467 79.2574 78.0664 81.9802 77.8224C83.9983 77.6377 86.0197 77.4928 88.041 77.3808C91.9581 77.1404 95.8784 77.0256 99.7988 76.8877C103.147 76.765 106.491 76.7459 109.833 76.8304C114.593 76.9505 119.357 77.13 124.108 77.4583C128.117 77.7368 132.123 78.1123 136.123 78.5848C139.544 78.9921 142.961 79.4291 146.379 79.9521C149.101 80.3659 151.811 80.8755 154.517 81.3983C156.756 81.8318 158.993 82.2884 161.216 82.7946C163.951 83.4166 166.664 84.151 169.383 84.8424C171.699 85.4279 173.968 86.1456 176.241 86.8568C181.232 88.419 186.136 90.2472 190.932 92.3335C194.757 94.0154 198.493 95.8917 202.126 97.9549C203.373 98.6642 204.565 99.4666 205.692 100.355C204.524 99.7534 203.376 99.1384 202.189 98.5498C198.633 96.7675 194.984 95.2066 191.272 93.7879C187.66 92.4033 184 91.1553 180.293 90.0439C176.608 88.9325 172.886 87.9533 169.138 87.0667C165.74 86.2661 162.33 85.5316 158.909 84.8632C155.558 84.2014 152.194 83.609 148.819 83.1157C145.025 82.5629 141.211 82.1225 137.396 81.682C133.096 81.2051 128.795 80.8703 124.494 80.5719C120.505 80.2901 116.502 80.1768 112.499 80.0999C108.412 80.0219 104.332 80.0044 100.258 80.0476C97.072 80.0832 93.8828 80.1618 90.7035 80.3264C86.4193 80.5502 82.1317 80.7641 77.8672 81.1862C74.625 81.516 71.3829 81.8458 68.1473 82.2681C65.5006 82.6179 62.8539 82.9875 60.184 83.3538C58.0269 83.6541 55.8831 84.0833 53.7458 84.4827C51.3704 84.9218 48.9949 85.3575 46.6327 85.8561C44.5815 86.2853 42.5435 86.784 40.5088 87.2826C38.7796 87.7097 37.0547 88.1566 35.3343 88.6234C33.3492 89.1617 31.4039 89.7132 29.4518 90.3044C26.4477 91.2127 23.4965 92.2432 20.5453 93.33C16.1237 94.9452 11.8018 96.8205 7.60203 98.946C7.23807 99.1277 6.87082 99.2697 6.5135 99.425Z" fill="#E3B13C"/>
<path d="M49.4492 67.3077C44.4184 67.3065 39.3854 67.3054 34.3502 67.3043C33.9069 67.3042 33.5926 67.3041 33.649 66.6894C33.6855 66.306 33.8046 66.2002 34.1685 66.2069C34.9048 66.2435 35.6425 66.1735 36.3587 65.9992C36.8892 65.8781 37.3711 65.6008 37.7421 65.2032C38.1132 64.8055 38.3563 64.3058 38.4401 63.7686C38.6391 62.5753 38.7181 61.3651 38.6758 60.1561C38.6911 50.7979 38.6932 41.4408 38.682 32.0848C38.6822 31.1924 38.6295 30.2967 38.59 29.4043C38.4846 27.1666 37.3303 26.0194 35.0741 25.9099C34.8107 25.8949 34.5467 25.8949 34.2834 25.9097C33.9062 25.9327 33.6217 25.9095 33.6549 25.3939C33.655 24.9312 33.8238 24.8255 34.2572 24.8256C40.2121 24.8401 46.167 24.8415 52.1219 24.8296C52.6016 24.8297 52.671 25.0214 52.6841 25.4379C52.684 25.9204 52.4425 25.9204 52.0985 25.9137C51.3622 25.8753 50.624 25.9218 49.8984 26.052C48.499 26.3425 47.5989 27.2281 47.4067 28.646C47.3008 29.4802 47.2509 30.3205 47.2573 31.1613C47.2551 40.7839 47.253 50.4043 47.2508 60.0225C47.2451 60.8894 47.2924 61.7559 47.3925 62.6171C47.5609 63.9624 48.1497 64.6797 49.4696 64.8023C51.853 65.0673 54.2585 65.0678 56.642 64.8039C59.9834 64.3717 61.8763 62.1312 63.2168 59.2923C64.1198 57.2792 64.8195 55.1812 65.3057 53.0293C65.3951 52.6724 65.4514 52.4146 65.9344 52.4114C66.4174 52.4082 66.596 52.5471 66.5595 53.0726C66.1174 57.6491 65.6984 62.2268 65.3026 66.8055C65.2529 67.3872 64.9088 67.3111 64.5449 67.311L49.4492 67.3077Z" fill="#383637"/>
<path d="M86.4981 99.7633C87.3188 98.9801 87.8814 98.0283 88.9963 97.7047C89.4578 97.5539 89.9571 97.5666 90.4102 97.7407C90.8634 97.9148 91.2426 98.2396 91.484 98.6604C92.1454 99.6786 92.0856 100.812 92.1118 101.926C92.1512 103.476 92.1111 105.03 92.1108 106.58C92.1106 107.367 92.0508 108.232 93.169 108.378C93.2361 108.388 93.2967 108.424 93.338 108.477C93.3793 108.531 93.3982 108.598 93.3906 108.666C93.3905 108.891 93.1954 108.884 93.0432 108.884C91.7794 108.884 90.5157 108.883 89.2486 108.883C89.1229 108.883 88.9641 108.883 88.9178 108.714C88.8715 108.546 89.0469 108.43 89.2024 108.414C90.3702 108.305 90.4233 107.485 90.4136 106.589C90.3941 104.854 90.4144 103.119 90.4148 101.384C90.415 100.495 90.3391 99.5328 89.3864 99.1756C88.4337 98.8184 87.6793 99.3834 87.0274 100.054C86.8893 100.172 86.7782 100.317 86.7016 100.482C86.6251 100.646 86.5849 100.825 86.5839 101.006C86.6121 103.055 86.6171 105.106 86.599 107.157C86.5989 107.838 86.7907 108.281 87.545 108.321C87.7633 108.321 88.0015 108.394 87.9716 108.668C87.9418 108.942 87.6606 108.886 87.4654 108.886C86.2811 108.886 85.0934 108.885 83.909 108.885C83.7337 108.885 83.4326 108.994 83.436 108.647C83.4361 108.373 83.6676 108.317 83.886 108.317C84.5774 108.317 84.7893 107.881 84.7861 107.282C84.7866 105.101 84.8168 102.916 84.7511 100.738C84.7052 99.1778 83.5441 98.6256 82.1908 99.4318C81.3636 99.9241 80.9003 100.555 80.9497 101.596C81.0387 103.431 81.0151 105.272 81.0345 107.11C81.0344 107.82 81.236 108.366 82.0995 108.343C82.298 108.343 82.4767 108.389 82.47 108.643C82.4633 108.898 82.2383 108.888 82.0663 108.888C80.8003 108.888 79.5355 108.887 78.2717 108.887C78.1228 108.887 77.9177 108.887 77.9145 108.685C77.9141 108.603 77.9449 108.523 78.0007 108.462C78.0564 108.4 78.1331 108.362 78.2156 108.355C79.2577 108.332 79.2877 107.516 79.3044 106.841C79.3578 104.766 79.3582 102.689 79.3057 100.611C79.2861 99.5865 79.0711 99.4245 78.1382 99.3681C77.9993 99.368 77.8735 99.368 77.8372 99.1862C77.8237 99.15 77.8176 99.1115 77.8193 99.0729C77.821 99.0343 77.8305 98.9964 77.8472 98.9616C77.8638 98.9267 77.8874 98.8956 77.9164 98.87C77.9454 98.8444 77.9792 98.825 78.0159 98.8128C78.8398 98.4163 79.6504 97.9968 80.4775 97.6135C80.7753 97.4748 81.0003 97.5773 81.0002 97.9442C80.9771 98.1261 80.9671 98.3095 80.9703 98.4928C81.0165 98.8234 80.7484 99.3422 81.1487 99.4844C81.4332 99.5836 81.6649 99.1177 81.8701 98.85C82.1605 98.4772 82.5214 98.1651 82.9322 97.9314C84.1862 97.1847 85.4135 97.565 86.0947 98.8774C86.2502 99.1484 86.3361 99.4162 86.4981 99.7633Z" fill="#E3B13C"/>
<path d="M144.084 106.403C144.1 107.464 142.846 108.756 141.933 108.687C141.735 108.686 141.543 108.625 141.382 108.51C141.22 108.396 141.099 108.235 141.033 108.049C140.703 107.163 140.656 107.156 139.948 107.817C139.24 108.478 138.548 108.858 137.612 108.696C136.239 108.454 135.34 106.629 135.82 105.116C136.146 104.167 136.801 103.365 137.666 102.855C138.507 102.322 139.393 101.863 140.313 101.484C140.478 101.442 140.621 101.34 140.716 101.199C140.81 101.057 140.848 100.886 140.823 100.718C140.78 100.248 140.807 99.7656 140.727 99.3029C140.665 98.9076 140.45 98.5525 140.128 98.3143C139.807 98.0761 139.404 97.974 139.007 98.03C138.276 98.0827 137.879 98.6147 137.869 99.5435C137.899 99.8563 137.88 100.172 137.813 100.479C137.654 100.922 137.319 101.265 136.787 101.11C136.168 100.928 136.053 100.386 136.126 99.8439C136.191 99.2379 136.447 98.6681 136.856 98.2163C137.266 97.7645 137.808 97.454 138.405 97.3291C139.155 97.154 139.935 97.161 140.682 97.3495C141.912 97.6803 142.567 98.6158 142.596 100.08C142.636 102.063 142.596 104.076 142.635 106.072C142.635 106.403 142.456 106.862 142.912 107.047C143.369 107.233 143.574 106.816 143.842 106.598C143.879 106.552 143.941 106.509 144.084 106.403ZM140.872 104.214L140.872 102.638C140.872 102.188 140.647 102.079 140.267 102.281C139.596 102.577 138.966 102.956 138.391 103.411C137.987 103.729 137.692 104.164 137.545 104.656C137.398 105.148 137.407 105.673 137.57 106.16C137.867 107.182 138.665 107.536 139.617 107.07C140.455 106.664 141.057 106.132 140.878 105.087C140.849 104.797 140.847 104.505 140.872 104.214Z" fill="#E3B13C"/>
<path d="M124.049 102.426C124.072 104.333 123.718 105.774 122.821 107.023C121.031 109.531 118.037 109.494 116.284 106.975C114.72 104.734 114.869 100.913 116.617 98.7916C118.579 96.3925 121.887 96.8097 123.322 99.6194C123.793 100.481 124.042 101.445 124.049 102.426ZM122.13 103.685C122.17 101.979 121.982 100.326 120.914 98.905C119.955 97.6356 118.231 97.8104 117.642 99.2777C116.546 101.994 116.92 104.616 118.404 107.088C118.585 107.416 118.869 107.675 119.211 107.826C119.553 107.977 119.936 108.012 120.3 107.925C121.067 107.76 121.524 107.224 121.806 106.481C122.137 105.565 122.094 104.627 122.117 103.681L122.13 103.685Z" fill="#E3B13C"/>
<path d="M74.4812 104.613C74.8483 105.416 74.5339 106.001 74.279 106.536C73.4184 108.344 72.4753 109.412 70.4772 109.163C68.8992 108.965 67.897 107.841 67.4673 106.479C66.7168 104.112 66.638 101.683 68.0015 99.4221C68.756 98.1729 70.4335 97.3635 71.6641 97.6051C73.649 97.9956 74.3964 99.5194 74.6409 100.851C74.6739 101.03 74.6408 101.222 74.7003 101.397C74.8391 101.952 74.5777 102.084 74.0782 102.078C72.4968 102.077 70.9188 102.077 69.3374 102.077C68.4409 102.076 68.3449 102.212 68.4804 103.104C68.6455 104.225 68.9232 105.279 69.6806 106.188C70.8812 107.636 72.9422 107.511 73.8789 105.859C74.0708 105.508 74.233 105.125 74.4812 104.613ZM70.4558 101.356L72.1099 101.357C72.3713 101.357 72.5532 101.307 72.5963 100.983C72.6186 100.472 72.4851 99.9661 72.2135 99.5323C71.9419 99.0985 71.5449 98.7572 71.0751 98.5536C70.3605 98.3121 69.4209 98.7879 68.9178 99.6141C68.7096 100.006 68.5633 100.427 68.4842 100.863C68.4014 101.194 68.5304 101.362 68.8844 101.356C69.4104 101.356 69.9331 101.356 70.4558 101.356Z" fill="#E3B13C"/>
<path d="M153.054 99.1369C153.054 99.5567 153.054 99.9765 153.054 100.396C153.054 100.595 153.136 100.905 152.878 100.935C152.62 100.965 152.524 100.637 152.511 100.416C152.448 100.002 152.312 99.6021 152.108 99.2359C151.959 98.8661 151.7 98.5506 151.367 98.3314C151.034 98.1123 150.641 97.9999 150.242 98.0092C149.937 97.9897 149.634 98.0654 149.373 98.2258C149.113 98.3862 148.909 98.6234 148.79 98.9046C148.439 99.6614 148.945 100.795 149.884 101.341C150.632 101.771 151.389 102.191 152.124 102.644C152.829 103.084 153.352 103.765 153.595 104.56C153.838 105.355 153.785 106.211 153.446 106.97C152.708 108.557 151.13 109.198 149.367 108.685C148.897 108.546 148.404 108.281 147.861 108.582C147.56 108.751 147.441 108.529 147.441 108.251C147.441 107.26 147.442 106.268 147.442 105.257C147.442 105.075 147.442 104.854 147.713 104.86C147.985 104.867 147.961 105.098 147.984 105.27C148.106 106.161 148.556 106.973 149.248 107.548C150.035 108.232 151.183 108.256 151.798 107.605C152.414 106.954 152.315 105.784 151.627 105.053C150.81 104.177 149.682 103.73 148.746 103.033C148.338 102.733 148.005 102.343 147.771 101.895C147.538 101.446 147.411 100.949 147.4 100.443C147.388 99.9374 147.494 99.4359 147.707 98.9771C147.921 98.5184 148.237 98.1148 148.631 97.7973C149.435 97.1365 150.305 97.1565 151.235 97.4112C151.691 97.5369 152.131 97.8576 152.614 97.3751C152.846 97.1405 153.045 97.3422 153.051 97.6496C153.051 98.1487 153.051 98.6411 153.051 99.1501L153.054 99.1369Z" fill="#E3B13C"/>
<path d="M56.9338 105.019C57.678 105.531 57.5025 106.238 57.8101 106.751C58.2565 107.491 58.7162 108.126 59.616 108.354C59.9152 108.459 60.2397 108.469 60.5445 108.381C60.8493 108.294 61.1192 108.113 61.3166 107.865C61.5351 107.6 61.6694 107.276 61.7025 106.934C61.7356 106.591 61.6659 106.247 61.5023 105.945C61.0956 105.086 60.2355 104.732 59.5177 104.219C59.0712 103.889 58.6279 103.575 58.1549 103.303C56.458 102.345 56.6174 99.4691 57.7921 98.3951C58.5796 97.6748 59.4464 97.3808 60.5249 97.7149C61.0244 97.8703 61.5635 98.2836 62.1228 97.7317C62.3908 97.4674 62.5164 97.8145 62.5197 97.983C62.5459 98.9746 62.5193 99.9662 62.519 100.974C62.519 101.11 62.4727 101.249 62.3106 101.268C62.0492 101.301 62.0128 101.09 61.9798 100.911C61.8875 100.317 61.6614 99.7523 61.3185 99.2586C61.0957 98.8996 60.7575 98.6268 60.3593 98.4849C59.4827 98.2104 58.6555 98.4581 58.2683 99.1158C57.9374 99.6776 58.1356 100.613 58.7145 101.195C59.376 101.856 60.2394 102.187 61.0299 102.666C62.1976 103.377 63.127 104.286 63.1763 105.737C63.2651 108.173 61.0978 109.779 58.7723 109.041C58.3885 108.919 57.9816 108.747 57.6177 108.863C56.956 109.071 56.8833 108.793 56.9 108.244C56.9531 107.226 56.9335 106.208 56.9338 105.019Z" fill="#E3B13C"/>
<path d="M110.324 101.963C110.323 103.801 110.376 105.642 110.303 107.476C110.253 108.736 109.971 109.958 109.094 110.966C108.277 111.915 107.231 112.182 106.047 112.017C105.798 111.983 105.563 111.879 105.37 111.719C105.176 111.558 105.032 111.346 104.952 111.108C104.869 110.912 104.855 110.694 104.911 110.488C104.968 110.283 105.092 110.103 105.264 109.977C105.415 109.869 105.598 109.814 105.784 109.82C105.97 109.826 106.148 109.893 106.292 110.011C106.559 110.219 106.808 110.449 107.037 110.698C107.672 111.283 108.33 111.029 108.482 110.183C108.529 109.898 108.552 109.609 108.549 109.32C108.55 105.698 108.55 102.074 108.551 98.4494C108.551 97.7454 108.575 96.9984 107.486 97.2196C107.454 97.2292 107.42 97.2314 107.387 97.2259C107.354 97.2204 107.323 97.2074 107.296 97.1879C107.269 97.1684 107.246 97.143 107.231 97.1135C107.215 97.084 107.206 97.0513 107.205 97.0179C107.197 96.9526 107.208 96.8863 107.237 96.8274C107.267 96.7685 107.313 96.7198 107.371 96.6874C108.125 96.3329 108.88 95.9838 109.637 95.6402C110.143 95.4089 110.355 95.561 110.351 96.1328C110.331 98.0763 110.351 100.02 110.35 101.963L110.324 101.963Z" fill="#E3B13C"/>
<path d="M130.908 102.361C130.908 103.776 130.907 105.194 130.907 106.608C130.907 107.306 131.036 107.931 131.919 108.01C132.084 108.01 132.25 108.086 132.223 108.288C132.197 108.489 132.038 108.529 131.892 108.532C130.657 108.532 129.421 108.532 128.184 108.531C128.028 108.531 127.853 108.512 127.83 108.303C127.793 108.032 127.995 107.999 128.181 107.996C128.879 107.996 129.081 107.51 129.097 106.948C129.167 104.513 129.194 102.073 129.076 99.634C129.046 99.0324 128.745 98.7712 128.136 98.9727C127.961 99.0289 127.835 99.0321 127.762 98.8371C127.69 98.6421 127.763 98.5628 127.941 98.4769C128.732 98.0837 129.5 97.6377 130.307 97.2908C130.813 97.0728 130.922 97.4364 130.922 97.876C130.899 99.3865 130.905 100.867 130.908 102.361Z" fill="#E3B13C"/>
<path d="M99.7171 102.622C99.7168 104.04 99.6999 105.458 99.7161 106.876C99.716 107.577 99.8184 108.267 100.748 108.377C100.92 108.397 101.122 108.522 101.079 108.747C101.036 108.972 100.817 108.889 100.672 108.889C99.4874 108.889 98.303 108.888 97.1187 108.888C96.9499 108.888 96.7051 108.938 96.6787 108.683C96.6523 108.429 96.9004 108.396 97.0692 108.379C97.8963 108.3 97.9956 107.646 98.0057 107.057C98.0459 104.827 98.0464 102.596 98.0072 100.364C98.0073 99.7594 97.8388 99.095 96.9223 99.3526C96.8843 99.3653 96.8441 99.3702 96.8042 99.3671C96.7643 99.3639 96.7254 99.3528 96.6898 99.3342C96.6543 99.3157 96.6229 99.2902 96.5975 99.2593C96.5721 99.2283 96.5532 99.1926 96.5419 99.1542C96.4625 98.9592 96.5783 98.8832 96.7405 98.8039C97.5345 98.4206 98.3154 98.0044 99.1194 97.641C99.6752 97.3932 99.7248 97.7799 99.7247 98.1997C99.7243 99.6672 99.724 101.137 99.7237 102.609L99.7171 102.622Z" fill="#E3B13C"/>
<path d="M99.9013 93.0998C99.9011 93.7608 99.4246 94.3622 98.8787 94.372C98.3329 94.3818 97.7739 93.7471 97.7707 93.1654C97.7675 92.5837 98.2937 91.9194 98.8197 91.8964C99.3458 91.8734 99.9014 92.4552 99.9013 93.0998Z" fill="#E3B13C"/>
<path d="M130.007 91.5564C130.632 91.5565 131.022 92.0359 131.019 92.7894C131.019 93.4307 130.539 94.0156 130.026 94.0022C129.513 93.9889 129.017 93.3938 129.034 92.7097C129.041 91.9429 129.372 91.5562 130.007 91.5564Z" fill="#E3B13C"/>
<path d="M110.405 91.043C110.405 91.8197 110.098 92.2097 109.476 92.2261C108.854 92.2425 108.427 91.7962 108.43 91.0525C108.431 90.3914 108.924 89.7537 109.423 89.7571C109.923 89.7605 110.406 90.3456 110.405 91.043Z" fill="#E3B13C"/>
</g>
<defs>
<filter id="filter0_d_589_1329" x="0" y="0" width="209.698" height="120.085" filterUnits="userSpaceOnUse" color-interpolation-filters="sRGB">
<feFlood flood-opacity="0" result="BackgroundImageFix"/>
<feColorMatrix in="SourceAlpha" type="matrix" values="0 0 0 0 0 0 0 0 0 0 0 0 0 0 0 0 0 0 127 0" result="hardAlpha"/>
<feOffset dy="4"/>
<feGaussianBlur stdDeviation="2"/>
<feColorMatrix type="matrix" values="0 0 0 0 0 0 0 0 0 0 0 0 0 0 0 0 0 0 0.25 0"/>
<feBlend mode="normal" in2="BackgroundImageFix" result="effect1_dropShadow_589_1329"/>
<feBlend mode="normal" in="SourceGraphic" in2="effect1_dropShadow_589_1329" result="shape"/>
</filter>
<clipPath id="clip0_589_1329">
<rect width="201.673" height="112.04" fill="white" transform="translate(4.0249)"/>
</clipPath>
</defs>
</svg>
